<svg width="190" height="80" viewBox="0 0 190 80" fill="none" xmlns="http://www.w3.org/2000/svg">
<g filter="url(#filter0_d_44_202)">
<path d="M167.226 0H21.9783C11.951 0 3.82233 7.76198 3.82233 17.3369V54.748C3.82233 64.3229 11.951 72.0849 21.9783 72.0849H167.226C177.253 72.0849 185.382 64.3229 185.382 54.748V17.3369C185.382 7.76198 177.253 0 167.226 0Z" fill="#D9D9D9"/>
<path d="M167.226 0H21.9783C11.951 0 3.82233 7.76198 3.82233 17.3369V54.748C3.82233 64.3229 11.951 72.0849 21.9783 72.0849H167.226C177.253 72.0849 185.382 64.3229 185.382 54.748V17.3369C185.382 7.76198 177.253 0 167.226 0Z" fill="url(#paint0_linear_44_202)" fill-opacity="0.92"/>
<g filter="url(#filter1_d_44_202)">
<path d="M112.196 8.30251H47.4847C31.8257 8.30251 19.1318 20.4239 19.1318 35.3763C19.1318 50.3287 31.8257 62.4502 47.4846 62.4502H112.196" stroke="#F57338" stroke-width="1.44665"/>
<path d="M134.055 62.4502H147.473C163.132 62.4502 175.826 50.3287 175.826 35.3763C175.826 20.4239 163.132 8.30251 147.473 8.30251H112.413" stroke="white" stroke-width="1.44665"/>
<path d="M69.2484 45.849H65.3797V32.6224C65.3797 32.3641 65.3257 32.123 65.2174 31.8991C65.1182 31.6753 64.9785 31.4814 64.7982 31.3179C64.6268 31.1457 64.4239 31.0121 64.1895 30.9174C63.955 30.8227 63.7025 30.7754 63.432 30.7754C63.1614 30.7754 62.909 30.8227 62.6744 30.9174C62.44 31.0121 62.2326 31.1457 62.0522 31.3179C61.8809 31.4814 61.7457 31.6753 61.6465 31.8991C61.5473 32.123 61.4976 32.3641 61.4976 32.6224V45.849H57.6155V32.6224C57.6155 32.3641 57.5658 32.123 57.4666 31.8991C57.3674 31.6753 57.2277 31.4814 57.0473 31.3179C56.876 31.1457 56.6731 31.0121 56.4387 30.9174C56.2041 30.8227 55.9517 30.7754 55.6811 30.7754C55.4106 30.7754 55.158 30.8227 54.9236 30.9174C54.6892 31.0121 54.4817 31.1457 54.3014 31.3179C54.1301 31.4814 53.9947 31.6753 53.8955 31.8991C53.7963 32.123 53.7468 32.3641 53.7468 32.6224V45.849H49.8647V32.6224C49.8647 31.856 50.0134 31.137 50.3109 30.4654C50.6176 29.7851 51.0323 29.1953 51.5555 28.6959C52.0875 28.1877 52.7052 27.7917 53.4085 27.5074C54.121 27.2147 54.8786 27.0683 55.6811 27.0683C56.4026 27.0683 57.0969 27.1931 57.7642 27.4429C58.4316 27.684 59.0312 28.0371 59.5633 28.5021C60.0953 28.0371 60.6905 27.684 61.3489 27.4429C62.0161 27.1931 62.7105 27.0683 63.432 27.0683C64.2345 27.0683 64.9875 27.2147 65.6909 27.5074C66.4033 27.7917 67.0211 28.1877 67.5441 28.6959C68.0761 29.1953 68.4909 29.7851 68.7885 30.4654C69.0952 31.137 69.2484 31.856 69.2484 32.6224V45.849ZM77.9326 42.4649C78.077 42.5079 78.2212 42.538 78.3656 42.5553C78.5098 42.5639 78.6542 42.5681 78.7984 42.5681C79.1591 42.5681 79.5063 42.5209 79.8399 42.4261C80.1736 42.3314 80.4847 42.1979 80.7733 42.0257C81.0709 41.8449 81.3324 41.6296 81.5579 41.3799C81.7923 41.1216 81.9817 40.8374 82.1259 40.5274L84.8312 43.1236C84.4886 43.5886 84.0919 44.0063 83.641 44.3766C83.199 44.7469 82.7166 45.0611 82.1935 45.3194C81.6796 45.5777 81.134 45.7714 80.5568 45.9007C79.9888 46.0384 79.4026 46.1073 78.7984 46.1073C77.7794 46.1073 76.8189 45.9264 75.9171 45.5649C75.0244 45.2031 74.2399 44.6994 73.5635 44.0536C72.8963 43.4077 72.3686 42.6414 71.9808 41.7544C71.593 40.8589 71.3993 39.8773 71.3993 38.8094C71.3993 37.7159 71.593 36.717 71.9808 35.8129C72.3686 34.9087 72.8963 34.138 73.5635 33.5007C74.2399 32.8636 75.0244 32.3684 75.9171 32.0154C76.8189 31.6623 77.7794 31.4859 78.7984 31.4859C79.4026 31.4859 79.9933 31.5547 80.5703 31.6924C81.1475 31.8303 81.6931 32.0283 82.2072 32.2866C82.7302 32.545 83.2171 32.8636 83.6681 33.2424C84.119 33.6127 84.5157 34.0303 84.8583 34.4953L77.9326 42.4649ZM79.8265 35.1929C79.655 35.1326 79.4837 35.0939 79.3124 35.0766C79.1501 35.0594 78.9788 35.0507 78.7984 35.0507C78.2933 35.0507 77.8155 35.1411 77.3645 35.322C76.9226 35.4943 76.5348 35.744 76.2012 36.0711C75.8766 36.3984 75.6195 36.7944 75.4301 37.2594C75.2409 37.7159 75.1462 38.2326 75.1462 38.8094C75.1462 38.9387 75.1507 39.085 75.1597 39.2486C75.1778 39.4123 75.2002 39.5801 75.2273 39.7524C75.2633 39.916 75.304 40.0753 75.3491 40.2303C75.3941 40.3853 75.4527 40.5231 75.5248 40.6436L79.8265 35.1929ZM92.3793 42.4649C92.5236 42.5079 92.6678 42.538 92.8121 42.5553C92.9564 42.5639 93.1007 42.5681 93.245 42.5681C93.6057 42.5681 93.9529 42.5209 94.2865 42.4261C94.6201 42.3314 94.9313 42.1979 95.2199 42.0257C95.5175 41.8449 95.779 41.6296 96.0044 41.3799C96.2389 41.1216 96.4283 40.8374 96.5725 40.5274L99.278 43.1236C98.9352 43.5886 98.5385 44.0063 98.0876 44.3766C97.6456 44.7469 97.1633 45.0611 96.6401 45.3194C96.1262 45.5777 95.5806 45.7714 95.0034 45.9007C94.4354 46.0384 93.8492 46.1073 93.245 46.1073C92.226 46.1073 91.2655 45.9264 90.3638 45.5649C89.471 45.2031 88.6865 44.6994 88.0101 44.0536C87.3428 43.4077 86.8152 42.6414 86.4275 41.7544C86.0398 40.8589 85.8459 39.8773 85.8459 38.8094C85.8459 37.7159 86.0398 36.717 86.4275 35.8129C86.8152 34.9087 87.3428 34.138 88.0101 33.5007C88.6865 32.8636 89.471 32.3684 90.3638 32.0154C91.2655 31.6623 92.226 31.4859 93.245 31.4859C93.8492 31.4859 94.4399 31.5547 95.017 31.6924C95.5941 31.8303 96.1397 32.0283 96.6537 32.2866C97.1768 32.545 97.6637 32.8636 98.1146 33.2424C98.5656 33.6127 98.9623 34.0303 99.3049 34.4953L92.3793 42.4649ZM94.273 35.1929C94.1016 35.1326 93.9303 35.0939 93.759 35.0766C93.5967 35.0594 93.4254 35.0507 93.245 35.0507C92.74 35.0507 92.262 35.1411 91.8111 35.322C91.3692 35.4943 90.9816 35.744 90.6478 36.0711C90.3231 36.3984 90.0661 36.7944 89.8769 37.2594C89.6875 37.7159 89.5928 38.2326 89.5928 38.8094C89.5928 38.9387 89.5973 39.085 89.6062 39.2486C89.6243 39.4123 89.6469 39.5801 89.6739 39.7524C89.7099 39.916 89.7506 40.0753 89.7956 40.2303C89.8407 40.3853 89.8993 40.5231 89.9714 40.6436L94.273 35.1929ZM108.436 45.849C107.543 45.849 106.704 45.6897 105.92 45.3711C105.135 45.0439 104.445 44.6004 103.85 44.0407C103.264 43.4723 102.799 42.8136 102.457 42.0644C102.123 41.3153 101.956 40.5144 101.956 39.662V35.5546H100.157V32.0411H101.956V26.5129H105.636V32.0411H111.236V35.5546H105.636V39.662C105.636 40.0323 105.708 40.381 105.852 40.7081C105.996 41.0269 106.195 41.3067 106.447 41.5479C106.7 41.7889 106.997 41.9827 107.34 42.129C107.683 42.2669 108.048 42.3357 108.436 42.3357H111.236V45.849H108.436Z" fill="#F57338"/>
<path d="M129.01 38.4479C129.01 39.4726 128.807 40.437 128.401 41.3411C127.995 42.2367 127.441 43.0203 126.737 43.692C126.034 44.355 125.209 44.8803 124.262 45.2677C123.324 45.6553 122.319 45.849 121.245 45.849C120.172 45.849 119.162 45.6553 118.215 45.2677C117.278 44.8803 116.457 44.355 115.754 43.692C115.059 43.0203 114.509 42.2367 114.103 41.3411C113.697 40.437 113.495 39.4726 113.495 38.4479V27.3267H117.363V38.4479C117.363 38.9559 117.462 39.4337 117.661 39.8816C117.868 40.3293 118.148 40.7211 118.499 41.057C118.851 41.3929 119.262 41.6597 119.73 41.8577C120.208 42.0473 120.713 42.142 121.245 42.142C121.777 42.142 122.278 42.0473 122.747 41.8577C123.225 41.6597 123.64 41.3929 123.991 41.057C124.343 40.7211 124.618 40.3293 124.817 39.8816C125.024 39.4337 125.128 38.9559 125.128 38.4479V27.3267H129.01V38.4479ZM135.435 51.119H131.715V32.0154H132.608L134.082 33.6816C134.416 33.3803 134.781 33.096 135.178 32.8291C135.575 32.5621 135.985 32.334 136.409 32.1446C136.842 31.9464 137.288 31.7914 137.748 31.6796C138.208 31.5676 138.672 31.5116 139.141 31.5116C140.16 31.5116 141.116 31.6881 142.009 32.0411C142.911 32.3857 143.695 32.8764 144.363 33.5137C145.039 34.1509 145.571 34.9216 145.959 35.8257C146.347 36.7213 146.541 37.7159 146.541 38.8094C146.541 39.9461 146.347 40.9709 145.959 41.8836C145.571 42.7877 145.039 43.5584 144.363 44.1957C143.695 44.8243 142.911 45.3066 142.009 45.6423C141.116 45.9781 140.16 46.1461 139.141 46.1461C138.817 46.1461 138.492 46.1116 138.167 46.0427C137.852 45.9739 137.536 45.8834 137.221 45.7714C136.914 45.651 136.607 45.5174 136.301 45.3711C136.003 45.2247 135.715 45.074 135.435 44.919V51.119ZM142.834 38.8094C142.834 38.224 142.735 37.6987 142.537 37.2337C142.347 36.7687 142.086 36.3769 141.752 36.0583C141.418 35.731 141.026 35.4813 140.575 35.3091C140.124 35.1369 139.646 35.0507 139.141 35.0507C138.636 35.0507 138.158 35.1369 137.708 35.3091C137.266 35.4813 136.878 35.731 136.544 36.0583C136.211 36.3769 135.945 36.7687 135.746 37.2337C135.557 37.6987 135.462 38.224 135.462 38.8094C135.462 39.3691 135.557 39.8816 135.746 40.3466C135.945 40.8116 136.211 41.2077 136.544 41.5349C136.878 41.8621 137.266 42.1161 137.708 42.297C138.158 42.4777 138.636 42.5681 139.141 42.5681C139.646 42.5681 140.124 42.4777 140.575 42.297C141.026 42.1161 141.418 41.8621 141.752 41.5349C142.086 41.2077 142.347 40.8116 142.537 40.3466C142.735 39.8816 142.834 39.3691 142.834 38.8094Z" fill="white"/>
<path d="M19.7485 41.0428L13.4721 63.504" stroke="#F57338" stroke-width="1.44665"/>
<path d="M29.5443 56.1671L13.745 62.7851" stroke="#F57338" stroke-width="1.44665"/>
<path d="M131.783 32.7691V51.6206" stroke="white" stroke-width="0.144665"/>
<path d="M135.462 44.6014V50.8184" stroke="white" stroke-width="0.144665"/>
<path d="M135.57 51.2746C135.57 50.2473 134.698 49.4146 133.623 49.4146C132.547 49.4146 131.675 50.2473 131.675 51.2746V58.9857C131.675 60.013 132.547 60.8457 133.623 60.8457C134.698 60.8457 135.57 60.013 135.57 58.9857V51.2746Z" fill="white"/>
<path d="M134.28 57.4408L132.973 57.4463C132.256 57.4494 131.678 58.007 131.681 58.6918L131.698 62.225C131.702 62.9098 132.286 63.4625 133.003 63.4595L134.31 63.4539C135.027 63.4509 135.606 62.8933 135.602 62.2084L135.585 58.6752C135.581 57.9904 134.997 57.4377 134.28 57.4408Z" fill="white"/>
<path d="M112.304 7.29974V9.3052" stroke="white" stroke-width="0.144665"/>
<path d="M115.126 63.1807C115.548 62.7773 115.548 62.123 115.126 61.7194L108.239 55.1434C107.816 54.7399 107.131 54.7399 106.708 55.1434C106.286 55.547 106.286 56.2011 106.708 56.6047L112.83 62.4501L106.708 68.2954C106.286 68.699 106.286 69.3533 106.708 69.7569C107.131 70.1603 107.816 70.1603 108.239 69.7569L115.126 63.1807ZM103.755 62.4501V63.4834H114.36V62.4501V61.4167H103.755V62.4501Z" fill="#F57338"/>
</g>
</g>
<defs>
<filter id="filter0_d_44_202" x="1.26743" y="0" width="186.669" height="77.1947" filterUnits="userSpaceOnUse" color-interpolation-filters="sRGB">
<feFlood flood-opacity="0" result="BackgroundImageFix"/>
<feColorMatrix in="SourceAlpha" type="matrix" values="0 0 0 0 0 0 0 0 0 0 0 0 0 0 0 0 0 0 127 0" result="hardAlpha"/>
<feOffset dy="2.55491"/>
<feGaussianBlur stdDeviation="1.27745"/>
<feComposite in2="hardAlpha" operator="out"/>
<feColorMatrix type="matrix" values="0 0 0 0 0 0 0 0 0 0 0 0 0 0 0 0 0 0 0.25 0"/>
<feBlend mode="normal" in2="BackgroundImageFix" result="effect1_dropShadow_44_202"/>
<feBlend mode="normal" in="SourceGraphic" in2="effect1_dropShadow_44_202" result="shape"/>
</filter>
<filter id="filter1_d_44_202" x="11.0442" y="5.57517" width="169.529" height="68.5082" filterUnits="userSpaceOnUse" color-interpolation-filters="sRGB">
<feFlood flood-opacity="0" result="BackgroundImageFix"/>
<feColorMatrix in="SourceAlpha" type="matrix" values="0 0 0 0 0 0 0 0 0 0 0 0 0 0 0 0 0 0 127 0" result="hardAlpha"/>
<feOffset dx="1.14971" dy="1.14971"/>
<feGaussianBlur stdDeviation="1.43714"/>
<feComposite in2="hardAlpha" operator="out"/>
<feColorMatrix type="matrix" values="0 0 0 0 0 0 0 0 0 0 0 0 0 0 0 0 0 0 0.25 0"/>
<feBlend mode="normal" in2="BackgroundImageFix" result="effect1_dropShadow_44_202"/>
<feBlend mode="normal" in="SourceGraphic" in2="effect1_dropShadow_44_202" result="shape"/>
</filter>
<linearGradient id="paint0_linear_44_202" x1="3.82233" y1="36.4987" x2="185.382" y2="36.4987" gradientUnits="userSpaceOnUse">
<stop stop-color="#7E26A4"/>
<stop offset="1" stop-color="#F57338"/>
</linearGradient>
</defs>
</svg>
